<?xml version="1.0" encoding="utf-8"?><svg viewBox="0 0 199 43" xmlns="http://www.w3.org/2000/svg" xmlns:xlink="http://www.w3.org/1999/xlink"><style>:root>svg{display:none}:root>svg:target{display:block}</style><svg fill="none" viewBox="0 0 23 22" id="icon-contacts" xmlns="http://www.w3.org/2000/svg"><path d="M5.49 5.868c0 2.93 2.775 5.182 6.01 5.182s6.01-2.252 6.01-5.182c0-2.931-2.776-5.183-6.01-5.183-3.235 0-6.01 2.252-6.01 5.183Zm2.437 0c0-1.556 1.527-2.961 3.573-2.961 2.046 0 3.573 1.405 3.573 2.96 0 1.557-1.527 2.961-3.573 2.961-2.046 0-3.573-1.404-3.573-2.96ZM18.514 20.186c0 .683.629 1.11 1.218 1.11.59 0 1.219-.427 1.219-1.11 0-1.945-1.124-3.66-2.837-4.868-1.714-1.209-4.055-1.943-6.614-1.943s-4.9.734-6.614 1.943c-1.713 1.208-2.837 2.923-2.837 4.868 0 .683.63 1.11 1.22 1.11.589 0 1.218-.427 1.218-1.11 0-1.189.713-2.324 1.984-3.184 1.268-.858 3.046-1.405 5.03-1.405 1.982 0 3.76.547 5.028 1.405 1.27.86 1.985 1.995 1.985 3.184Z" fill="currentColor" stroke="currentColor"/></svg><svg fill="none" viewBox="0 0 24 24" id="icon-wallet" xmlns="http://www.w3.org/2000/svg"><path d="M13 11.9H7c-.41 0-.75-.34-.75-.75s.34-.75.75-.75h6c.41 0 .75.34.75.75s-.34.75-.75.75ZM2 11.9c-.41 0-.75-.34-.75-.75V6.53c0-2.45 1.99-4.44 4.44-4.44h5.62c2.57 0 4.44 1.71 4.44 4.06 0 .41-.34.75-.75.75s-.75-.34-.75-.75c0-1.76-1.53-2.56-2.94-2.56H5.69c-1.62 0-2.94 1.32-2.94 2.94v4.62c0 .42-.34.75-.75.75Z" fill="#fff"/><path d="M16 21.9H6c-2.62 0-4.75-2.13-4.75-4.75v-7C1.25 7.53 3.38 5.4 6 5.4h10c2.62 0 4.75 2.13 4.75 4.75v1.45c0 .41-.34.75-.75.75h-1.08c-.35 0-.67.13-.9.37l-.01.01c-.33.33-.46.79-.34 1.24.15.56.74.97 1.4.97H20c.41 0 .75.34.75.75v1.45c0 2.63-2.13 4.76-4.75 4.76ZM6 6.9c-1.79 0-3.25 1.46-3.25 3.25v7c0 1.79 1.46 3.25 3.25 3.25h10c1.79 0 3.25-1.46 3.25-3.25v-.7h-.18c-1.35 0-2.52-.85-2.85-2.08-.26-.97.02-2 .73-2.7.52-.53 1.22-.82 1.97-.82h.33v-.7c0-1.79-1.46-3.25-3.25-3.25H6Z" fill="#fff"/><path d="M20.97 16.45h-1.93c-1.51 0-2.79-1.12-2.91-2.56-.08-.83.22-1.64.82-2.23.5-.52 1.21-.81 1.96-.81h2.05c.98 0 1.78.79 1.78 1.77v2.06c.01.98-.79 1.77-1.77 1.77Zm-2.05-4.1c-.35 0-.67.13-.9.37-.29.28-.43.66-.39 1.04.05.66.69 1.19 1.41 1.19h1.93c.15 0 .28-.12.28-.27v-2.06c0-.15-.13-.27-.28-.27h-2.05Z" fill="#fff"/></svg><svg fill="none" viewBox="0 0 199 43" id="logo" xmlns="http://www.w3.org/2000/svg"><path fill-rule="evenodd" clip-rule="evenodd" d="M56.244 14.007c-6.65 0-8.281 6.034-8.281 9.213 0 3.2 1.795 5.773 5.996 5.773 4.753 0 6.69-3.242 7.262-5.407h-3.345c-.98 2.552-2.734 2.652-3.57 2.652-.612 0-2.712-.16-2.712-3.523 0-2.189 1.142-5.953 4.506-5.953 1.551 0 2.591.626 2.591 2.044 0 .143 0 .284-.02.424h3.325c.06-.342.06-.688.06-1.032 0-3.665-3.528-4.191-5.812-4.191ZM74.234 25.834h-8.097l.652-3.1h7.016l.55-2.753H67.38l.593-2.815h7.954l.572-2.754h-11.3l-3.02 14.174h11.484l.572-2.752ZM80.169 22.673h3.08c1.163 0 1.937.264 1.937 1.479 0 1.317-1.346 1.682-2.223 1.682h-3.467l.673-3.161Zm1.163-5.507h3.018c.918 0 1.509.465 1.509 1.195 0 1.276-1.346 1.56-2.018 1.56h-3.1l.591-2.755Zm1.02 11.42c4.364 0 6.404-1.903 6.404-4.515 0-1.883-1.184-2.652-2.366-2.935l.02-.043c2.428-.524 3.121-2.43 3.121-3.684 0-1.438-.674-2.997-3.794-2.997h-7.18L75.54 28.586h6.812ZM102.442 25.834h-8.098l.655-3.1h7.015l.55-2.753h-6.975l.591-2.815h7.954l.572-2.754H93.408l-3.02 14.174h11.482l.572-2.752ZM109.539 17.166h2.653c1.305 0 2.099.405 2.099 1.722 0 .992-.59 2.085-2.916 2.085h-2.652l.816-3.807Zm-2.426 11.42 1.04-4.859h3.202c5.895 0 6.507-3.99 6.507-5.446 0-3.465-2.795-3.87-4.426-3.87h-6.669l-3.02 14.175h3.366ZM125.123 21.904h-5.875l-.529 2.532h5.873l.531-2.532ZM141.583 19.23c.06-.342.06-.688.06-1.032 0-3.665-3.527-4.191-5.811-4.191-6.65 0-8.281 6.034-8.281 9.213 0 3.2 1.793 5.773 5.997 5.773 4.75 0 6.689-3.242 7.26-5.407h-3.345c-.979 2.552-2.732 2.652-3.569 2.652-.614 0-2.714-.16-2.714-3.523.001-2.189 1.143-5.953 4.508-5.953 1.55 0 2.591.626 2.591 2.044 0 .143 0 .284-.02.424h3.324ZM150.068 19.92h-3.101l.591-2.754h3.02c.918 0 1.508.465 1.508 1.195 0 1.276-1.346 1.56-2.018 1.56Zm-.877 5.914h-3.468l.673-3.161h3.08c1.163 0 1.937.264 1.937 1.479 0 1.317-1.345 1.682-2.222 1.682Zm2.773-11.422h-7.179l-3.018 14.174h6.811c4.366 0 6.406-1.903 6.406-4.515 0-1.883-1.183-2.652-2.365-2.935l.018-.043c2.428-.524 3.122-2.43 3.122-3.684 0-1.438-.674-2.997-3.795-2.997ZM164.203 17.166h2.977l-.795 3.767h-2.875c-.592 0-2.081-.141-2.081-1.56 0-1.903 1.978-2.207 2.774-2.207Zm-4.161 11.42 3.753-4.9h1.999l-1.04 4.9h3.364l3.019-14.174h-7.199c-3.263 0-6.139 1.68-6.139 5.001 0 2.652 1.386 3.707 2.833 3.95l-4.507 5.223h3.917ZM177.276 28.993c6.345 0 7.119-3.485 7.119-4.841 0-2.044-1.591-2.672-2.509-2.855v-.04c1.857-.385 3.161-1.74 3.161-3.686.001-1.843-1.264-3.564-5.281-3.564-4.814 0-6.691 2.31-7.283 5.002h3.407c.184-.871.814-2.247 3.12-2.247 1.083 0 2.406.261 2.406 1.458 0 .789-.428 1.821-2.567 1.821h-1.672l-.552 2.612h2.019c.816 0 2.122.08 2.122 1.418 0 1.093-.898 2.167-3.223 2.167-1.306 0-2.999-.243-2.999-2.127 0-.142.02-.263.061-.404h-3.285a7.071 7.071 0 0 0-.079.688c-.042.406-.063.831 0 1.236.345 2.714 3.017 3.362 6.035 3.362ZM193.042 25.834h-3.202l.756-3.525h2.734c1.366 0 2.1.487 2.1 1.702 0 1.56-1.857 1.823-2.388 1.823Zm1.083-6.28h-2.958l1.101-5.142h-3.366l-3.017 14.174h6.772c4.404 0 6.343-2.41 6.343-4.94 0-4.01-3.57-4.091-4.875-4.091ZM1.451 26.66c-.077.165.002.058.17-.205a.568.568 0 0 0-.17.205Z" fill="currentColor"/><path fill-rule="evenodd" clip-rule="evenodd" d="M18.426 28.772c-.11-.037-1.489-1.365-1.832-1.694-.345-.334-.82-.356-.82-.356s.106-.303.377-.402c.27-.099.197-.527.197-.527.543-1.574 2.022-2.109 1.717-2.211-.266-.092-1.389-1.203-1.56-1.368.198.187.559-.05.559-.05-.43-.367-1.147-2.427-.873-2.215.271.212.542.117.452-.103-.09-.22-.074-.743-.074-.743s.903 1.15 1.004 1.131c-.08.015-.66.114-.66.114s.78 1.062 1.375 1.171c0 0-.757-.003-.932-.106-.12-.066.036.278.051.311a3.164 3.164 0 0 0 1.74 1.752c-.493.033-1.902 2.66-1.902 2.66-.246.44 2.249 2.453 2.249 2.453s-.958.213-1.068.183Zm-3.759-1.632c-.567.043-3.286 1.903-3.286 1.903s-.502-.802-.697-.714c-.195.084-1.847 1.142-1.847 1.142l-.232-1.365c-.216-1.574.805-4.188.805-4.188-.194.71.913 2.288.913 2.288-.115-1.903 3.39-7.74 3.39-7.74s-1.266 2.71-.683 4.896l1.909-1.543c-.697.666.71 4.168.71 4.168s-.413 1.109-.982 1.153Zm-.403-17.206c.4-.252.876-.417 1.331-.538 0 0-2.013.78-1.886 2.291a16.28 16.28 0 0 0 .552 2.921c.986-.347 1.924.092 1.924.092s-1.476-.062-2.126.879a31.638 31.638 0 0 1-.619-1.915c-.39-1.373-.55-2.873.824-3.73Zm3.428 1.476c-.373-.045-.572.329-.572.329s.253-.198.873.373c.622.57-.537 1.596-.537 1.596s-.2-1.786-1.624-1.076c0 0 .798-.557.661-.838-.389-.806-1.506.354-1.506.354.913-2.126 3.077-.698 2.705-.739Zm2.341.072c-.652-.435-.971.604-.971.604s-.086-1.387-.849-2.064c-.16-.143 1.82 1.46 1.82 1.46Zm6.081 6.015c-2.976-3.035-7.15-2.958-7.15-2.958 1.101-.6 1.146-1.882 1.146-1.882 3.31.989 6.004 4.84 6.004 4.84Zm1.274 2.91 1.817.838-2.697.45s.162-.285-.18-.308c-.345-.018-1.02-.45-1.056-.651-.034-.205.377-1.78 1.141-1.907 0 0-.168 1.014.975 1.578Zm4.48.563c.566.42.72.767.674 1.09-.047.334-.287.8-.565 1.189l-1.174.08c.045-.17.137-.362.302-.572.773-.98.58-1.46.244-1.75-.234-.202-1.113-.542-1.113-.542s1.288.251 1.631.505Zm-6.345-2.148-.576.46-.214.894s-1.252-.128-1.47-.18c-.22-.054.575-1.383 2.26-1.174Zm4.081 7.524c-.733.46-3.189.171-3.89-.1-.7-.274-2.523.235-2.523.235s1.11-.7 1.62-.784c.508-.087 1.733.048 3.08.26 1.345.216 2.391-.245 2.391-.245s.054.176-.678.634Zm-9.857 3.272c-.931.055-.24-.795-.24-.795 1.174.74 2.58.396 2.58.396-.257-.89.422-1.212.422-1.212 1.947-.85 3.213-.534 3.213-.534 2.563.293 4.45-1.171 4.45-1.171.967-.473 1.729-2.045 2.25-2.768.268-.371 1.592-2.143-.293-2.899a575.455 575.455 0 0 1-4.384-1.825l-.361-2.119-3.232-2.99-2.887-1.593s1.233-1.976.451-2.258c-.78-.286-1.817-.838-2.817-.567-1.001.274-1.58-.67-2.513-.615-.934.05-1.525.256-1.525.256L9.139 7.288l-2.734-.685s-.15.96.412 1.801c0 0-3.236 1.27-3.862 2.519-.624 1.248.186-.136 1.391.182 0 0-3.265 3.562-2.973 4.656l.33 3.167s-2.75 5.968-1.261 4.884c1.491-1.08 3.697-.413 3.29-.344-.305.052-1.608 2.204-2.111 2.987.64-.512 2.609-.68 2.609-.68-.947 1.2-1.106 5.175-.685 3.963.422-1.215 1.286-1.05 1.286-1.05-.507.71.54 5.003.54 5.003s1.994-3.037 1.604-2.247c-.387.795.33 2.544.396 1.702.066-.842 2.042-2.76 2.042-2.76l-.04 1.007c.04-1.007 1.636-2.079 1.636-2.079 0 .626.358.875.358.875.2-1.282 3.269-2.314 3.269-2.314.037.125.12.257.218.388l-.01-.007c-1.232 1.684-1.763 2.797-1.763 2.797s1.062-.762 1.415-.879c.355-.117.767-.176.767-.176s-2.005 1.816-2.713 4.041c-.708 2.226-1.062 3.69-1.062 3.69s2.36-2.753 2.89-3.162c.531-.41.885-.645.885-.645s-1.061 1.582-1.238 2.46c-.177.879-.295 2.46-.295 2.46l.707-.645s.177 2.167.826 2.987c.65.82 1.947 1.816 1.947 1.816s-1.062-1.581-.885-3.045c.177-1.465.885-2.46.885-2.46l-1.357.995s-.167-2.46.89-3.806l1.057-1.347-1.593.354s.295-1.585 1.24-2.346c.943-.761 1.356-.82 1.356-.82s-1.003-.292-1.593-.117c-.59.176-1.357.586-1.357.586l.38-1.545c.073.026.1.015.018-.08-.391-.454.168-.86.168-.86 1.106 1.58 4.262 1.054 3.328 1.109Z" fill="currentColor"/><path fill-rule="evenodd" clip-rule="evenodd" d="M18.551 0A21.28 21.28 0 0 0 2.04 7.815a20.489 20.489 0 0 1 14.466-5.94c11.313 0 20.484 9.106 20.484 20.34 0 9.822-7.017 18.021-16.345 19.921C31.41 41.093 39.823 32.085 39.823 21.12 39.823 9.458 30.299 0 18.55 0Z" fill="currentColor"/></svg></svg>